<svg xmlns="http://www.w3.org/2000/svg" viewBox="0 0 64 64" role="img" aria-label="WhatsApp icon">
  <rect width="64" height="64" rx="18" fill="#25D366"/>
  <path fill="#ffffff" d="M32 14.5c-9.7 0-17.5 7.3-17.5 16.2 0 3.5 1.2 6.8 3.3 9.5l-2 7.3 7.6-2.1c2.5 1.4 5.3 2.1 8.6 2.1 9.7 0 17.5-7.3 17.5-16.2S41.7 14.5 32 14.5Zm0 29.5c-2.6 0-5-.7-7.1-2l-.5-.3-4.5 1.2 1.2-4.3-.3-.5c-1.5-2.2-2.3-4.7-2.3-7.4 0-7.2 6.3-13 14-13s14 5.8 14 13-6.3 13.3-14 13.3Zm8.1-10.2c-.4-.2-2.4-1.2-2.8-1.3-.4-.1-.8-.2-1.1.2-.3.4-1.2 1.3-1.5 1.6-.3.3-.6.3-1.1.1-.4-.2-1.7-.6-3.3-2.1-1.2-1.1-2-2.5-2.3-2.9-.3-.4 0-.6.2-.8.2-.2.4-.5.6-.8.2-.3.3-.5.5-.8.2-.3.1-.6 0-.8-.1-.2-1.1-2.7-1.5-3.7-.4-.9-.8-.8-1.1-.8h-1c-.4 0-1 .1-1.5.7s-1.9 1.9-1.9 4.6 2 5.3 2.3 5.7c.3.4 3.9 5.8 9.4 8.1 1.3.5 2.3.8 3 .9 1.3.4 2.5.3 3.4.2 1-.1 2.4-1 2.8-2 .4-1 .4-1.9.3-2.1-.1-.2-.4-.3-.8-.5Z"/>
</svg>