<svg xmlns="http://www.w3.org/2000/svg" viewBox="0 0 64 64" role="img" aria-label="YouTube icon">
  <rect width="64" height="64" rx="18" fill="#FF0000"/>
  <path fill="#ffffff" d="M46.7 22.9c.8.8 1.4 1.8 1.6 3 .3 1.7.3 5.2.3 6.1s0 4.4-.3 6.1c-.2 1.2-.8 2.2-1.6 3-.8.8-1.8 1.4-3 1.6-2.6.4-11.7.4-11.7.4s-9.1 0-11.7-.4c-1.2-.2-2.2-.8-3-1.6-.8-.8-1.4-1.8-1.6-3-.3-1.7-.3-5.2-.3-6.1s0-4.4.3-6.1c.2-1.2.8-2.2 1.6-3 .8-.8 1.8-1.4 3-1.6 2.6-.4 11.7-.4 11.7-.4s9.1 0 11.7.4c1.2.2 2.2.8 3 1.6ZM28.8 27.2v9.6l8.5-4.8-8.5-4.8Z"/>
</svg>